# xmcd CD database file
#
# Track frame offsets:
#	182
#	40512
#	63362
#	98925
#	124637
#	152137
#	185625
#	226312
#	260137
#
# Disc length: 3783 seconds
#
# Revision: 1
# Processed by: cddbd v1.5.2PL0 Copyright (c) Steve Scherf et al.
# Submitted via: CDex 1.51
#
DISCID=750ec509
DTITLE=Perico Sambeat Quintet - Michael Philip Mossman - Uptown Dance
DYEAR=1992
DGENRE=Jazz
TTITLE0=No peeking
TTITLE1=Final chance
TTITLE2=Brokenhearted
TTITLE3=The menace
TTITLE4=La mesha
TTITLE5=Uptown dance
TTITLE6=2 X 1
TTITLE7=Cage og ice
TTITLE8=En la olla
EXTD=YEAR: 1992
EXTT0=
EXTT1=
EXTT2=
EXTT3=
EXTT4=
EXTT5=
EXTT6=
EXTT7=
EXTT8=
PLAYORDER=
